<svg width="39" height="36" viewBox="0 0 39 36" fill="none" xmlns="http://www.w3.org/2000/svg">
<path d="M37.8323 0H0.231347C0.103669 0 0 0.102327 0 0.22856V35.7714C0 35.8977 0.103669 36 0.231347 36H37.8323C37.9599 36 38.063 35.8977 38.063 35.7714V0.22856C38.063 0.102327 37.9599 0 37.8323 0Z" fill="#0EC5D7"/>
<path d="M10.0606 7.92285V28.0777V7.92285Z" fill="white"/>
<path d="M10.0606 7.92285V28.0777" stroke="white" stroke-width="3.30707"/>
<path d="M16.2048 7.92285V17.9622V7.92285Z" fill="white"/>
<path d="M16.2048 7.92285V17.9622" stroke="white" stroke-width="3.30079"/>
<path d="M20.8848 7.92285V11.3329H26.749L31.003 19.9713H34.8333L28.75 7.92285H20.8848Z" fill="white"/>
<path d="M22.6285 15.0283V28.4772V15.0283Z" fill="white"/>
<path d="M22.6285 15.0283V28.4772" stroke="white" stroke-width="3.82041"/>
</svg>
